<?xml version="1.0" standalone="no"?>
<!DOCTYPE svg PUBLIC "-//W3C//DTD SVG 20010904//EN"
 "http://www.w3.org/TR/2001/REC-SVG-20010904/DTD/svg10.dtd">
<svg version="1.0" xmlns="http://www.w3.org/2000/svg"
 width="814.000000pt" height="814.000000pt" viewBox="0 0 814.000000 814.000000"
 preserveAspectRatio="xMidYMid meet">
<metadata>
Created by potrace 1.14, written by Peter Selinger 2001-2017
</metadata>
<g transform="translate(0.000000,814.000000) scale(0.100000,-0.100000)"
fill="#000000" stroke="none">
<path d="M1210 5465 c-315 -54 -581 -188 -800 -406 -184 -183 -308 -401 -377
-665 -26 -102 -28 -122 -28 -309 0 -219 11 -293 66 -458 128 -384 415 -695
789 -854 193 -82 323 -107 545 -107 139 0 189 4 274 23 238 52 466 162 626
302 238 208 397 463 470 752 34 135 35 151 42 400 l6 227 -440 0 c-407 0 -446
-1 -519 -20 -247 -63 -431 -274 -452 -517 l-5 -63 377 0 376 0 -15 -37 c-61
-147 -217 -309 -370 -385 -123 -62 -249 -88 -395 -83 -120 4 -183 18 -292 65
-389 167 -579 599 -442 1003 86 252 285 435 565 518 71 21 95 23 599 28 515 6
526 7 590 30 36 12 90 37 120 54 74 41 188 158 228 234 35 66 72 195 72 250
l0 33 -767 -1 c-572 -1 -787 -5 -843 -14z"/>
<path d="M3487 5470 c-32 -10 -91 -52 -125 -89 -67 -74 -74 -98 -342 -1196
-27 -110 -101 -411 -165 -670 -175 -711 -205 -833 -205 -848 0 -12 44 -14 279
-11 256 2 283 4 318 23 47 23 104 84 133 140 17 33 158 575 176 675 3 16 7 32
9 36 2 3 6 17 9 31 10 53 117 473 121 478 3 2 5 -3 5 -11 0 -8 59 -253 130
-544 72 -291 147 -598 168 -682 l37 -152 282 4 c255 5 286 7 320 25 79 40 149
144 169 250 3 14 18 77 35 140 16 64 32 129 35 145 3 16 7 32 9 36 2 3 6 17 9
31 5 26 173 710 183 744 4 14 10 2 20 -40 8 -33 42 -168 75 -300 33 -132 61
-247 63 -255 14 -62 107 -439 144 -590 l47 -185 348 0 c191 0 349 2 351 5 2 3
-8 48 -21 100 -13 52 -26 104 -28 115 -2 11 -18 75 -35 142 -18 67 -33 130
-35 140 -2 10 -38 158 -81 328 -98 396 -206 836 -210 855 -2 8 -12 51 -24 95
-11 44 -22 91 -25 105 -3 14 -19 79 -36 145 -17 66 -33 131 -36 145 -3 14 -21
88 -41 165 -19 77 -37 151 -39 165 -21 120 -86 238 -157 287 l-42 28 -205 3
c-186 3 -209 2 -250 -16 -56 -25 -119 -85 -154 -148 -34 -61 -43 -95 -187
-679 -66 -269 -122 -499 -126 -510 -4 -12 -42 122 -100 355 -51 206 -95 382
-97 390 -13 50 -78 319 -82 338 -19 99 -93 211 -164 248 -43 23 -53 24 -240
23 -107 0 -208 -5 -223 -9z"/>
<path d="M7100 5473 c-184 -22 -305 -52 -416 -103 -216 -99 -351 -243 -420
-445 -24 -70 -28 -98 -31 -225 -3 -167 15 -272 66 -385 94 -207 275 -350 651
-514 119 -52 297 -145 343 -178 149 -109 122 -277 -55 -340 -50 -18 -238 -25
-320 -12 -29 5 -73 12 -98 15 -126 17 -379 96 -527 164 l-83 39 0 -328 0 -327
48 -23 c135 -66 312 -116 477 -136 145 -17 476 -17 582 0 414 68 704 298 794
631 31 113 31 316 1 429 -36 131 -92 233 -176 318 -114 115 -240 193 -515 316
-150 68 -316 155 -368 194 -77 59 -102 139 -66 214 32 69 140 111 270 107 97
-3 220 -22 289 -44 17 -6 40 -12 50 -14 25 -5 206 -72 262 -98 24 -11 45 -18
46 -16 1 2 10 23 20 48 10 25 22 54 27 65 5 11 27 67 49 125 23 58 49 123 60
145 30 66 74 185 69 188 -8 8 -187 76 -249 96 -68 21 -250 66 -310 75 -135 22
-369 31 -470 19z"/>
</g>
</svg>
